# xmcd CD database file
#
# Track frame offsets:
#	150
#	18920
#	39627
#	64193
#	81794
#	96370
#	108167
#	139240
#	162883
#	180700
#
# Disc length: 2565 seconds
#
# Revision: 0
# Processed by: cddbd v1.5PL3 Copyright (c) Steve Scherf et al.
# Submitted via: CDex 1.50
#
DISCID=7e0a030a
DTITLE=Various Artist - The Days that I Missed You
DYEAR=2003
DGENRE=Jazz
TTITLE0=The Czars - Drug
TTITLE1=Solveig Slettahjell - All the Way
TTITLE2=Departure Lounge - I Love You
TTITLE3=Ketil Bjornstad - Taipei Nights No 1
TTITLE4=The Perishers - When I Wake Up Tomorrow
TTITLE5=Marc Lloret - Belle and the Bastards
TTITLE6=Ursula - La Despedida
TTITLE7=Agent 5.1 - Robert
TTITLE8=Slowpho - Hotel Sleep
TTITLE9=Tensy Krismant - Sueno Carnavalero
EXTD=YEAR: 2003
EXTT0=
EXTT1=
EXTT2=
EXTT3=
EXTT4=
EXTT5=
EXTT6=
EXTT7=
EXTT8=
EXTT9=
PLAYORDER=
